<svg width="300" height="166" viewBox="0 0 300 166" xmlns="http://www.w3.org/2000/svg">
  <style>
    .title { font: 600 18px 'Segoe UI', Ubuntu, Sans-Serif; fill: #0969da }
    .lang { font: 400 12px 'Segoe UI', Ubuntu, Sans-Serif; fill: #1f2328 }
    .pct { text-anchor: end }
    /* the stats card shrinks its header on Firefox; match it */
    @supports(-moz-appearance: auto) { .title { font-size: 15.5px } }
  </style>
  <text x="25" y="32" class="title">Most Used Languages</text>
  <g clip-path="url(#bar)">
    <rect x="25.00" y="45" width="67.08" height="8" fill="#00ADD8"/>
    <rect x="92.08" y="45" width="52.73" height="8" fill="#3572A5"/>
    <rect x="144.81" y="45" width="49.83" height="8" fill="#355570"/>
    <rect x="194.64" y="45" width="26.63" height="8" fill="#3178c6"/>
    <rect x="221.27" y="45" width="25.77" height="8" fill="#b07219"/>
    <rect x="247.04" y="45" width="10.13" height="8" fill="#e34c26"/>
    <rect x="257.17" y="45" width="9.42" height="8" fill="#f1e05a"/>
    <rect x="266.58" y="45" width="8.42" height="8" fill="#000080"/>
  </g>
  <clipPath id="bar"><rect x="25" y="45" width="250" height="8" rx="4"/></clipPath>
  <circle cx="30" cy="74" r="5" fill="#00ADD8"/><text x="42" y="78" class="lang">Go</text><text x="155" y="78" class="lang pct">26.8%</text>
  <circle cx="170" cy="74" r="5" fill="#3572A5"/><text x="182" y="78" class="lang">Python</text><text x="295" y="78" class="lang pct">21.1%</text>
  <circle cx="30" cy="96" r="5" fill="#355570"/><text x="42" y="100" class="lang">GDScript</text><text x="155" y="100" class="lang pct">19.9%</text>
  <circle cx="170" cy="96" r="5" fill="#3178c6"/><text x="182" y="100" class="lang">TypeScript</text><text x="295" y="100" class="lang pct">10.7%</text>
  <circle cx="30" cy="118" r="5" fill="#b07219"/><text x="42" y="122" class="lang">Java</text><text x="155" y="122" class="lang pct">10.3%</text>
  <circle cx="170" cy="118" r="5" fill="#e34c26"/><text x="182" y="122" class="lang">HTML</text><text x="295" y="122" class="lang pct">4.1%</text>
  <circle cx="30" cy="140" r="5" fill="#f1e05a"/><text x="42" y="144" class="lang">JavaScript</text><text x="155" y="144" class="lang pct">3.8%</text>
  <circle cx="170" cy="140" r="5" fill="#000080"/><text x="182" y="144" class="lang">Lua</text><text x="295" y="144" class="lang pct">3.4%</text>
</svg>
